{
	"asset":{
		"generator":"Khronos glTF Blender I/O v4.2.60",
		"version":"2.0"
	},
	"scene":0,
	"scenes":[
		{
			"name":"Scene",
			"nodes":[
				7
			]
		}
	],
	"nodes":[
		{
			"name":"Materials"
		},
		{
			"mesh":0,
			"name":"Object_0"
		},
		{
			"children":[
				1
			],
			"name":"street_rat_0"
		},
		{
			"children":[
				2
			],
			"name":"GLTF_SceneRootNode",
			"rotation":[
				0.7071068286895752,
				0,
				0,
				0.7071068286895752
			]
		},
		{
			"children":[
				3
			],
			"name":"root"
		},
		{
			"children":[
				4
			],
			"name":"Sketchfab_model",
			"rotation":[
				-0.7071068286895752,
				0,
				0,
				0.7071068286895752
			]
		},
		{
			"children":[
				5
			],
			"name":"Meshes",
			"scale":[
				100.00000762939453,
				100,
				100
			]
		},
		{
			"children":[
				0,
				6
			],
			"name":"scene",
			"rotation":[
				0.7071068286895752,
				0,
				0,
				0.7071068286895752
			]
		}
	],
	"materials":[
		{
			"doubleSided":true,
			"name":"street_rat",
			"normalTexture":{
				"index":0
			},
			"pbrMetallicRoughness":{
				"baseColorTexture":{
					"index":1
				},
				"metallicRoughnessTexture":{
					"index":2
				}
			}
		}
	],
	"meshes":[
		{
			"name":"Object_0",
			"primitives":[
				{
					"attributes":{
						"POSITION":0,
						"NORMAL":1,
						"TEXCOORD_0":2
					},
					"indices":3,
					"material":0
				}
			]
		}
	],
	"textures":[
		{
			"sampler":0,
			"source":0
		},
		{
			"sampler":0,
			"source":1
		},
		{
			"sampler":0,
			"source":2
		}
	],
	"images":[
		{
			"mimeType":"image/jpeg",
			"name":"street_rat_normal_norm",
			"uri":"street_rat_normal_norm.jpg"
		},
		{
			"mimeType":"image/jpeg",
			"name":"street_rat_baseColor",
			"uri":"street_rat_baseColor.jpg"
		},
		{
			"mimeType":"image/png",
			"name":"street_rat_metallicRoughness_metal_scale0-street_rat_metallicRoughness_rough",
			"uri":"street_rat_metallicRoughness_metal_scale0-street_rat_metallicRoughness_rough.png"
		}
	],
	"accessors":[
		{
			"bufferView":0,
			"componentType":5126,
			"count":31937,
			"max":[
				0.01598476432263851,
				0.04095526039600372,
				2.6982656891050283e-06
			],
			"min":[
				-0.01598476432263851,
				-0.10739462822675705,
				-0.033862680196762085
			],
			"type":"VEC3"
		},
		{
			"bufferView":1,
			"componentType":5126,
			"count":31937,
			"type":"VEC3"
		},
		{
			"bufferView":2,
			"componentType":5126,
			"count":31937,
			"type":"VEC2"
		},
		{
			"bufferView":3,
			"componentType":5123,
			"count":171648,
			"type":"SCALAR"
		}
	],
	"bufferViews":[
		{
			"buffer":0,
			"byteLength":383244,
			"byteOffset":0,
			"target":34962
		},
		{
			"buffer":0,
			"byteLength":383244,
			"byteOffset":383244,
			"target":34962
		},
		{
			"buffer":0,
			"byteLength":255496,
			"byteOffset":766488,
			"target":34962
		},
		{
			"buffer":0,
			"byteLength":343296,
			"byteOffset":1021984,
			"target":34963
		}
	],
	"samplers":[
		{
			"magFilter":9729,
			"minFilter":9987
		}
	],
	"buffers":[
		{
			"byteLength":1365280,
			"uri":"rat.bin"
		}
	]
}
